<!DOCTYPE svg PUBLIC "-//W3C//DTD SVG 1.1//EN" "http://www.w3.org/Graphics/SVG/1.1/DTD/svg11.dtd">
<!-- Uploaded to: SVG Repo, www.svgrepo.com, Transformed by: SVG Repo Mixer Tools -->
<svg fill="#ffffff" width="800px" height="800px" viewBox="0 0 32 32" version="1.1" xmlns="http://www.w3.org/2000/svg" stroke="#ffffff">
<g id="SVGRepo_bgCarrier" stroke-width="0"/>
<g id="SVGRepo_tracerCarrier" stroke-linecap="round" stroke-linejoin="round"/>
<g id="SVGRepo_iconCarrier"> <title>patch</title> <path d="M2.771 21.449c-1.172 1.172-1.172 3.071 0 4.243l3.536 3.535c1.171 1.172 3.070 1.172 4.242 0l4.95-4.949-7.777-7.778-4.951 4.949zM8.429 15.793l7.778 7.778 6.363-6.364-7.777-7.778-6.364 6.364zM12 17h-1v-1h1v1zM14 19h-1v-1h1v1zM14 17h-1v-1h1v1zM14 15h-1v-1h1v1zM19 16h1v1h-1v-1zM17 14h1v1h-1v-1zM17 16h1v1h-1v-1zM17 18h1v1h-1v-1zM15 12h1v1h-1v-1zM15 14h1v1h-1v-1zM15 16h1v1h-1v-1zM15 18h1v1h-1v-1zM15 20h1v1h-1v-1zM28.229 7.308l-3.536-3.535c-1.172-1.172-3.071-1.172-4.243 0l-4.95 4.949 7.777 7.778 4.951-4.95c1.171-1.171 1.171-3.071 0.001-4.242z"/> </g>
</svg>